<svg xmlns="http://www.w3.org/2000/svg" xmlns:xlink="http://www.w3.org/1999/xlink" width="28" height="27" viewBox="0 0 28 27"><defs><path id="ibjea" d="M1201.204 478.198a2.698 2.698 0 0 1-1.784.726c-2.257 0-3.28-2.884-3.28-4.624 0-.678.13-1.377.577-1.924.421-.52 1.154-.857 1.838-.857 2.176 0 3.305 2.91 3.305 4.781 0 .468-.053 1.298-.656 1.898zm2.1 8.369c0 1.608-1.339 2.807-3.858 2.807-2.806 0-4.617-1.327-4.617-3.173 0-1.844 1.679-2.469 2.256-2.675 1.101-.366 2.518-.418 2.755-.418.262 0 .393 0 .602.027 1.996 1.403 2.862 2.102 2.862 3.432zm11.695-6.067c0 7.455-6.114 13.5-13.657 13.5s-13.658-6.045-13.658-13.5c0-7.456 6.115-13.5 13.658-13.5 7.543 0 13.657 6.044 13.657 13.5zm-9.938 5.052c0-1.795-1.05-2.679-2.204-3.64l-.945-.725c-.288-.236-.682-.548-.682-1.118 0-.573.394-.937.735-1.274 1.102-.856 2.202-1.769 2.202-3.69 0-1.976-1.257-3.015-1.86-3.508h1.625l1.706-1.06h-5.17c-1.417 0-3.461.331-4.958 1.553-1.127.961-1.678 2.288-1.678 3.481 0 2.027 1.575 4.081 4.354 4.081.263 0 .55-.025.84-.052-.13.312-.262.572-.262 1.014 0 .805.419 1.298.787 1.766-1.18.08-3.386.21-5.012 1.197-1.548.91-2.02 2.234-2.02 3.17 0 1.924 1.836 3.716 5.64 3.716 4.513 0 6.902-2.468 6.902-4.911zm7.058-5.37v-1.297h-2.637v-2.598h-1.298v2.598h-2.625v1.297h2.625v2.614h1.298v-2.614z"/></defs><g><g transform="translate(-1187 -467)"><use fill="#d42727" xlink:href="#ibjea"/></g></g></svg>