<svg xmlns="http://www.w3.org/2000/svg" xmlns:xlink="http://www.w3.org/1999/xlink" width="40" height="40" viewBox="0 0 40 40"><defs><path id="2fmua" d="M1029.799 2211.59c-.618.616-1.652 1.076-2.612 1.076-3.305 0-4.802-4.273-4.802-6.85 0-1.004.19-2.04.844-2.85.616-.771 1.69-1.27 2.69-1.27 3.187 0 4.84 4.31 4.84 7.082 0 .694-.077 1.923-.96 2.811zm3.074 12.398c0 2.384-1.96 4.158-5.648 4.158-4.11 0-6.76-1.965-6.76-4.699 0-2.733 2.458-3.658 3.302-3.964 1.613-.542 3.688-.618 4.034-.618.384 0 .577 0 .883.038 2.922 2.08 4.19 3.116 4.19 5.085zM1050 2215c0 11.046-8.953 20-19.999 20-11.045 0-19.999-8.954-19.999-20 0-11.045 8.954-19.999 20-19.999 11.045 0 19.998 8.954 19.998 19.999zm-14.553 7.485c0-2.66-1.536-3.968-3.227-5.392l-1.384-1.076c-.421-.35-.998-.81-.998-1.656 0-.848.577-1.387 1.077-1.886 1.613-1.27 3.224-2.62 3.224-5.467 0-2.927-1.842-4.467-2.725-5.198h2.38l2.499-1.57h-7.57c-2.076 0-5.07.492-7.26 2.3-1.652 1.425-2.457 3.39-2.457 5.159 0 3.002 2.305 6.046 6.375 6.046.385 0 .805-.038 1.229-.077-.19.462-.383.847-.383 1.5 0 1.194.613 1.925 1.153 2.617-1.73.12-4.959.31-7.34 1.774-2.266 1.348-2.957 3.31-2.957 4.695 0 2.85 2.688 5.505 8.26 5.505 6.606 0 10.104-3.655 10.104-7.274zm10.336-7.955v-1.922h-3.862v-3.849h-1.901v3.849h-3.843v1.922h3.843v3.872h1.9v-3.872z"/></defs><g><g transform="translate(-1010 -2195)"><use fill="#d42727" xlink:href="#2fmua"/></g></g></svg>