<svg xmlns="http://www.w3.org/2000/svg" xmlns:xlink="http://www.w3.org/1999/xlink" width="28" height="27" viewBox="0 0 28 27"><defs><path id="trgla" d="M1161.425 475.885a2.333 2.333 0 0 1 2.356-2.35 2.33 2.33 0 0 1 2.35 2.322 2.324 2.324 0 0 1-2.338 2.331c-1.308.005-2.358-1.016-2.368-2.303zm16.013 4.615c0 7.455-6.114 13.5-13.657 13.5s-13.658-6.045-13.658-13.5 6.115-13.5 13.658-13.5c7.543 0 13.657 6.045 13.657 13.5zm-18.464-4.65c-.016 2.602 2.14 4.756 4.769 4.765 2.655.01 4.826-2.096 4.839-4.693a4.784 4.784 0 0 0-4.782-4.816c-2.655-.007-4.811 2.113-4.826 4.744zm10.29 5.253c-.272-.44-.746-.624-1.254-.495a1.945 1.945 0 0 0-.697.356c-2.128 1.415-5.04 1.376-7.16-.064a2.303 2.303 0 0 0-.327-.19c-.588-.275-1.153-.147-1.49.33-.395.558-.345 1.1.154 1.572.128.122.274.228.415.337 1.138.88 2.467 1.238 3.94 1.39-.104.11-.17.186-.242.257-1.08 1.071-2.16 2.143-3.244 3.212-.224.22-.385.467-.4.789-.024.477.275.952.745 1.177.443.213.897.145 1.278-.227.85-.827 1.694-1.66 2.525-2.505.208-.211.32-.258.557-.015.809.837 1.65 1.644 2.476 2.466.216.214.459.367.77.388.491.034.993-.277 1.216-.749.204-.432.127-.893-.245-1.264-1.09-1.09-2.19-2.173-3.284-3.26-.076-.075-.134-.14-.256-.27.806-.096 1.621-.24 2.365-.524.786-.302 1.494-.733 2.082-1.33.384-.39.388-.88.076-1.381z"/></defs><g><g transform="translate(-1150 -467)"><use fill="#ef9929" xlink:href="#trgla"/></g></g></svg>