<svg xmlns="http://www.w3.org/2000/svg" xmlns:xlink="http://www.w3.org/1999/xlink" width="40" height="40" viewBox="0 0 40 40"><defs><path id="nnbea" d="M971.55 2208.163a3.436 3.436 0 0 1 3.451-3.481 3.43 3.43 0 0 1 3.442 3.44 3.424 3.424 0 0 1-3.424 3.454 3.431 3.431 0 0 1-3.468-3.413zM995 2215c0 11.045-8.954 20-20 20-11.045 0-19.999-8.955-19.999-20s8.954-19.999 20-19.999c11.045 0 19.998 8.954 19.998 19.999zm-27.038-6.888c-.023 3.855 3.134 7.046 6.983 7.06 3.888.012 7.066-3.106 7.086-6.954.02-3.938-3.107-7.124-7.002-7.135-3.887-.01-7.046 3.131-7.067 7.029zm15.068 7.782c-.399-.65-1.093-.925-1.836-.733-.383.098-.713.291-1.021.527-3.116 2.097-7.381 2.038-10.485-.095a3.363 3.363 0 0 0-.478-.282c-.861-.406-1.69-.218-2.183.49-.577.826-.504 1.628.226 2.328.188.181.401.338.608.5 1.666 1.303 3.612 1.834 5.77 2.06-.153.162-.25.274-.356.38-1.582 1.586-3.163 3.174-4.75 4.757-.328.327-.563.693-.586 1.17-.034.707.404 1.41 1.093 1.744.648.315 1.312.215 1.87-.336 1.244-1.226 2.48-2.46 3.697-3.712.305-.313.47-.382.816-.021 1.184 1.24 2.417 2.435 3.626 3.652.316.318.671.544 1.127.576.72.05 1.454-.411 1.78-1.11.3-.64.187-1.323-.358-1.873-1.597-1.616-3.207-3.219-4.809-4.83-.112-.11-.196-.206-.374-.4 1.18-.142 2.373-.354 3.462-.776 1.152-.447 2.188-1.087 3.05-1.971.562-.577.567-1.303.11-2.045z"/></defs><g><g transform="translate(-955 -2195)"><use fill="#ef9929" xlink:href="#nnbea"/></g></g></svg>