<svg xmlns="http://www.w3.org/2000/svg" xmlns:xlink="http://www.w3.org/1999/xlink" width="28" height="27" viewBox="0 0 28 27"><defs><path id="1w20a" d="M1139.877 480.5c0 7.455-6.115 13.5-13.657 13.5-7.543 0-13.658-6.045-13.658-13.5 0-7.456 6.115-13.5 13.658-13.5 7.542 0 13.657 6.044 13.657 13.5zm-6.878-.054c.504-.698 1.046-1.369 1.554-2.063.475-.65.96-1.297 1.21-2.074.16-.495.019-.713-.494-.8a1.635 1.635 0 0 0-.27-.016l-3.044-.003c-.375-.006-.582.156-.715.484-.179.444-.363.888-.577 1.316-.483.971-1.023 1.91-1.781 2.705-.168.175-.352.396-.631.305-.35-.125-.452-.695-.447-.886l-.002-3.473c-.068-.496-.18-.717-.678-.814l-3.161.001c-.423 0-.634.161-.86.422-.13.15-.168.248.099.299.524.098.82.434.898.954.126.83.117 1.665.045 2.5a2.295 2.295 0 0 1-.161.714c-.153.357-.4.43-.724.21-.294-.199-.5-.48-.702-.762a16.747 16.747 0 0 1-1.857-3.401c-.143-.347-.389-.557-.76-.563a79.581 79.581 0 0 0-2.74 0c-.55.011-.714.275-.49.767.995 2.187 2.102 4.313 3.547 6.25.742.993 1.594 1.87 2.694 2.492 1.248.705 2.59.917 4.004.852.663-.031.861-.201.892-.854.021-.446.072-.89.295-1.29.218-.394.55-.47.931-.224.191.123.352.278.504.443.373.403.732.818 1.119 1.207.485.489 1.06.777 1.782.718h2.798c.45-.029.685-.575.426-1.072a5.3 5.3 0 0 0-.674-.96c-.571-.677-1.245-1.256-1.881-1.87-.575-.554-.611-.875-.15-1.514z"/></defs><g><g transform="translate(-1112 -467)"><use fill="#497da4" xlink:href="#1w20a"/></g></g></svg>