<svg xmlns="http://www.w3.org/2000/svg" xmlns:xlink="http://www.w3.org/1999/xlink" width="40" height="40" viewBox="0 0 40 40"><defs><path id="bks8a" d="M940 2215c0 11.046-8.955 20-20 20s-19.999-8.954-19.999-20c0-11.045 8.954-19.999 20-19.999 11.044 0 19.998 8.954 19.998 19.999zm-10.073-.08c.738-1.034 1.532-2.027 2.276-3.057.695-.961 1.406-1.92 1.772-3.072.233-.732.027-1.056-.724-1.184a2.294 2.294 0 0 0-.395-.024l-4.458-.005c-.549-.009-.852.23-1.046.717a27.145 27.145 0 0 1-.845 1.95c-.708 1.439-1.499 2.83-2.609 4.007-.245.26-.515.588-.924.453-.51-.187-.662-1.03-.653-1.314l-.004-5.144c-.1-.735-.263-1.063-.992-1.206l-4.63.001c-.618 0-.927.239-1.257.625-.19.224-.248.368.143.442.768.146 1.202.644 1.316 1.414.184 1.232.172 2.467.065 3.704-.03.36-.093.72-.236 1.057-.224.53-.586.638-1.06.312-.43-.295-.732-.712-1.028-1.13-1.11-1.568-1.996-3.26-2.719-5.038-.209-.513-.569-.825-1.113-.833a112.845 112.845 0 0 0-4.012.001c-.805.015-1.044.405-.717 1.135 1.457 3.24 3.077 6.389 5.194 9.258 1.086 1.472 2.334 2.772 3.945 3.693 1.827 1.044 3.792 1.359 5.863 1.262.97-.046 1.261-.298 1.306-1.264.03-.661.105-1.319.431-1.912.32-.584.806-.695 1.364-.332.28.181.515.412.738.657.546.596 1.072 1.212 1.638 1.788.71.724 1.552 1.15 2.61 1.063h4.097c.66-.043 1.003-.851.623-1.588-.266-.517-.615-.976-.986-1.421-.837-1.004-1.823-1.861-2.755-2.772-.841-.82-.895-1.297-.218-2.243z"/></defs><g><g transform="translate(-900 -2195)"><use fill="#497da4" xlink:href="#bks8a"/></g></g></svg>